<?xml version="1.0" standalone="no"?>
<!DOCTYPE svg PUBLIC "-//W3C//DTD SVG 20010904//EN"
 "http://www.w3.org/TR/2001/REC-SVG-20010904/DTD/svg10.dtd">
<svg version="1.0" xmlns="http://www.w3.org/2000/svg"
 width="174.000000pt" height="60.000000pt" viewBox="0 0 174.000000 60.000000"
 preserveAspectRatio="xMidYMid meet">
<g transform="translate(0.000000,60.000000) scale(0.100000,-0.100000)"
fill="#000000" stroke="none">
<path d="M525 581 c-51 -13 -91 -39 -129 -83 -109 -127 -53 -331 106 -384 104
-34 219 4 283 95 26 37 30 53 33 121 4 70 1 84 -23 128 -53 98 -164 148 -270
123z m154 -71 c71 -40 112 -133 92 -207 -41 -151 -217 -204 -325 -96 -99 98
-61 270 71 319 47 18 113 11 162 -16z"/>
<path d="M50 340 l0 -220 25 0 25 0 0 220 0 220 -25 0 -25 0 0 -220z"/>
<path d="M130 530 c0 -28 2 -30 38 -30 47 0 75 -27 75 -72 0 -39 -33 -68 -79
-68 -31 0 -34 -2 -34 -31 l0 -32 52 5 c44 5 57 11 85 42 27 29 33 44 33 80 0
25 -5 55 -11 68 -16 37 -70 68 -117 68 -40 0 -42 -1 -42 -30z"/>
<path d="M880 340 l0 -220 30 0 30 0 0 220 0 220 -30 0 -30 0 0 -220z"/>
<path d="M1200 340 l0 -220 30 0 30 0 0 220 0 220 -30 0 -30 0 0 -220z"/>
<path d="M1610 340 l0 -220 30 0 30 0 0 220 0 220 -30 0 -30 0 0 -220z"/>
<path d="M960 499 c1 -46 -4 -39 192 -289 l27 -35 1 41 c0 33 -8 51 -38 90
-21 27 -71 91 -110 143 l-72 94 0 -44z"/>
<path d="M1410 300 l0 -180 25 0 25 0 0 180 0 180 -25 0 -25 0 0 -180z"/>
</g>
</svg>
